<?xml version="1.0" encoding="utf-8"?>
<!-- Generator: Adobe Illustrator 23.1.0, SVG Export Plug-In . SVG Version: 6.00 Build 0)  -->
<svg version="1.1" id="Layer_1" xmlns="http://www.w3.org/2000/svg" xmlns:xlink="http://www.w3.org/1999/xlink" x="0px" y="0px"
	 viewBox="0 0 1161 305" style="enable-background:new 0 0 1161 305;" xml:space="preserve">
<style type="text/css">
	.st0{display:none;fill:#253938;}
	.st1{fill:#FF7E55;}
	.st2{fill-rule:evenodd;clip-rule:evenodd;fill:#FF7E55;}
	.st3{fill:#78C2FF;}
</style>
<g>
	<path class="st0" d="M1088.1,114.2L1088.1,114.2v120.5c0,1.4-1.2,2.6-2.6,2.6h-0.1h-9.6c-1.4,0-2.6-1.2-2.6-2.6v-0.2l-0.2-120.3
		c0-1.4,1.2-2.6,2.6-2.6l0,0h9.9C1086.9,111.6,1088.1,112.8,1088.1,114.2L1088.1,114.2z M834.6,67.5v10.4c-8.4-2-16.8,1.5-20.6,9.4
		c-0.4,0.8-0.7,1.5-0.9,2.3c-0.6,1.9-0.8,3.9-0.8,6.1c0.1,5.1,4,12.7,11.7,22.7c11.8,15.3,18.8,24.8,21.2,28.6
		c7.5,12.3,11.2,24.1,11.2,35.3c0,14.4-4.5,26.2-13.4,35.5c-8.4,8.7-19.7,14-33.9,16.1c-5.2,1.2-11,0.9-16.4,0.9v-11.2
		c0.9,0,1.7,0,2.5,0c11.2-0.3,20.4-2.9,27.6-7.8c0.7-0.5,1.4-0.9,2-1.4c10.6-7.9,15.9-18.6,15.9-31.9c0-9.8-3.7-20.3-11.2-31.3
		c-7-9.1-14.1-18.2-21.2-27.3c-7.5-10.6-11.3-20.1-11.5-28.6v-0.1v-1c0.1-6.8,2.6-12.9,7.5-18.2c2.5-2.7,5.2-4.7,8.1-6.1
		C819.3,66.6,827.3,67.5,834.6,67.5L834.6,67.5z M979.5,209.1c-5.8,8.7-13.3,15.6-22.6,20.7l0,0l0,0c-4.6,2.6-9.5,4.5-14.5,5.8
		s-10.3,1.9-15.7,1.9c-8.8,0-16.9-1.5-24.4-4.6s-14.3-7.7-20.5-13.9c-6.1-6.1-10.8-13-13.9-20.4c-3.1-7.5-4.6-15.6-4.6-24.3
		c0-8.6,1.5-16.7,4.6-24.1c3.1-7.4,7.7-14.2,13.9-20.4c6.1-6.1,13-10.8,20.5-13.9s15.7-4.6,24.4-4.6c15,0,28,4.2,39,12.7
		c5.5,4.2,10.2,9.2,13.9,15l0,0c3.5,5.3,6.2,11.3,8.1,17.9c0.5,1.6,0.3,3.1-0.7,4.5c-0.8,0.1-1.8,0.1-2.5,0.1
		c-6.1,0.3-14.4,0.4-25,0.4c-14.2,0-40.5,0-79-0.1c-0.5,1.8-0.9,3.6-1.2,5.4c-0.4,2.4-0.6,4.9-0.6,7.4c0,6.8,1.1,13.1,3.4,18.8
		c2.3,5.7,5.7,10.9,10.2,15.6c4.5,4.7,9.6,8.2,15.2,10.5c5.6,2.3,11.7,3.5,18.4,3.5c4.4,0,8.6-0.5,12.6-1.5s7.9-2.5,11.7-4.5
		c3.7-2,7.1-4.3,10-7l0,0c2.9-2.7,5.5-5.7,7.6-9.1c0.8-1.2,2.4-1.6,3.6-0.8c0.1,0.1,0.2,0.1,0.3,0.2l0,0c0.4,0.3,1.2,1,2.4,1.8
		c1.4,1.1,3,2.3,4.8,3.6C980.1,206.4,980.3,208,979.5,209.1L979.5,209.1z M887.8,146.6H966c-1.5-2.1-3.2-4.1-5.1-5.9
		c-3-2.9-6.3-5.5-10.1-7.7c-7.5-4.4-15.8-6.6-24.7-6.6s-16.8,2-23.5,6C896.9,135.8,892,140.5,887.8,146.6L887.8,146.6z M993.8,157.1
		v-12.9l0,0c0-4.5,0.8-8.7,2.5-12.6c1.7-3.9,4.1-7.4,7.4-10.6c3.3-3.2,6.9-5.6,11-7.1c4-1.6,8.3-2.4,13-2.4
		c10.4,0,18.4,2.7,24.1,8.2c5.6,5.4,8.7,13.3,9.4,23.8v0.3v90.9v0.1c0,1.4-1.2,2.6-2.6,2.6h-9.8h-0.1c-1.4,0-2.6-1.2-2.6-2.6V146
		c0-2.6-0.4-5-1.3-7.2s-2.1-4.2-3.9-6.1c-1.7-1.8-3.5-3.1-5.6-4l-0.1-0.1c-2.1-0.9-4.5-1.4-7-1.4c-2.6,0-5,0.5-7.2,1.4
		c-2.2,0.9-4.3,2.3-6.2,4.2s-3.3,3.9-4.2,6.1c-0.9,2.2-1.4,4.6-1.4,7.2v88.7v0.1c0,1.4-1.2,2.6-2.6,2.6h-9.9l0,0
		c-1.4,0-2.6-1.2-2.6-2.6l-0.2-72.4L993.8,157.1L993.8,157.1z"/>
	<g>
		<path class="st1" d="M786.4,220.8c-5.8,8.7-13.3,15.6-22.6,20.7l0,0l0,0c-4.6,2.6-9.5,4.5-14.5,5.8s-10.3,1.9-15.7,1.9
			c-8.8,0-16.9-1.5-24.4-4.6s-14.3-7.7-20.5-13.9c-6.1-6.1-10.8-13-13.9-20.4c-3.1-7.5-4.6-15.6-4.6-24.3c0-8.6,1.5-16.7,4.6-24.1
			c3.1-7.4,7.7-14.2,13.9-20.4c6.1-6.1,13-10.8,20.5-13.9s15.7-4.6,24.4-4.6c15,0,28,4.2,39,12.7c5.5,4.2,10.2,9.2,13.9,15l0,0
			c3.5,5.3,6.2,11.3,8.1,17.9c0.5,1.6,0.3,3.1-0.7,4.5c-0.8,0.1-1.8,0.1-2.5,0.1c-6.1,0.3-14.4,0.4-25,0.4c-14.2,0-40.5,0-79-0.1
			c-0.5,1.8-0.9,3.6-1.2,5.4c-0.4,2.4-0.6,4.9-0.6,7.4c0,6.8,1.1,13.1,3.4,18.8c2.3,5.7,5.7,10.9,10.2,15.6
			c4.5,4.7,9.6,8.2,15.2,10.5c5.6,2.3,11.7,3.5,18.4,3.5c4.4,0,8.6-0.5,12.6-1.5s7.9-2.5,11.7-4.5c3.7-2,7.1-4.3,10-7l0,0
			c2.9-2.7,5.5-5.7,7.6-9.1c0.8-1.2,2.4-1.6,3.6-0.8c0.1,0.1,0.2,0.1,0.3,0.2l0,0c0.4,0.3,1.2,1,2.4,1.8c1.4,1.1,3,2.3,4.8,3.6
			C787,218,787.2,219.6,786.4,220.8L786.4,220.8z M694.7,158.3h78.2c-1.5-2.1-3.2-4.1-5.1-5.9c-3-2.9-6.3-5.5-10.1-7.7
			c-7.5-4.4-15.8-6.6-24.7-6.6s-16.8,2-23.5,6C703.8,147.4,698.9,152.1,694.7,158.3L694.7,158.3z"/>
		<path class="st1" d="M629,249h-11.5c-0.3,0-0.6-0.1-0.9-0.2c-1.1-0.3-2-1-2.8-2.1l-0.1-0.1c-0.6-0.9-1.2-2-1.7-3.3l0,0
			c-0.5-1.3-0.9-2.6-1.1-3.8v-0.2c-0.1-0.7-0.2-1.4-0.3-2.1c-3.6,3.2-7.5,5.8-11.8,7.7c-6.1,2.7-12.9,4.1-20.3,4.1
			c-6.6,0-12.7-1.1-18.3-3.4c-5.6-2.2-10.8-5.6-15.4-10c-4.6-4.5-8.2-9.4-10.5-14.8c-2.4-5.4-3.5-11.3-3.5-17.6s1.2-12.2,3.5-17.6
			c2.3-5.4,5.8-10.4,10.5-14.8c4.6-4.5,9.8-7.8,15.4-10c5.6-2.2,11.7-3.4,18.3-3.4c7.3,0,13.9,1.4,20,4.2c4.2,1.9,8.1,4.5,11.7,7.8
			l0.2-15.9l0,0c0-3.9-1.4-7.2-4.1-10.1c-1.4-1.4-2.9-2.5-4.5-3.2s-3.5-1.1-5.5-1.1c-4,0-7.7,1.7-11.2,5.2c-0.9,0.9-2.3,1-3.3,0.3
			c-1.3-0.8-2.7-1.7-4.1-2.7c-1.5-1-3.1-2.1-4.7-3.3c-1.2-0.8-1.4-2.5-0.6-3.6c0.1-0.1,0.2-0.2,0.2-0.3c3.1-3.7,6.6-6.5,10.4-8.4
			l0,0l0,0c3.9-1.9,8.1-2.9,12.6-2.9c4.1,0,8,0.7,11.5,2.1s6.7,3.5,9.6,6.3c2.8,2.8,5,5.9,6.5,9.4l0,0c1.5,3.5,2.3,7.3,2.5,11.4v0.1
			l0,0v1.1v80.1c0.3,2.9,0.9,5.3,1.8,7.1c0.7,1.6,1.7,2.7,2.8,3.3c1.3,0.7,1.7,2.3,1,3.5C630.8,248.5,629.9,249,629,249L629,249
			L629,249z M609.6,203c0-8.4-3.1-15.5-9.2-21.4c-3.1-3-6.5-5.2-10.3-6.6c-3.7-1.5-7.9-2.2-12.3-2.2c-4.4,0-8.6,0.7-12.3,2.2
			s-7.2,3.7-10.3,6.6c-3.1,2.9-5.4,6.2-6.9,9.7s-2.3,7.4-2.3,11.6c0,8.4,3.1,15.5,9.2,21.5c3.1,3,6.5,5.2,10.3,6.7
			c3.7,1.5,7.8,2.2,12.3,2.2s8.6-0.7,12.3-2.2s7.2-3.7,10.3-6.7s5.4-6.3,6.9-9.8C608.9,211.1,609.6,207.2,609.6,203L609.6,203z"/>
		<path class="st1" d="M267.7,185.6c0,17.5-6.2,32.4-18.5,44.7c-6.1,6.1-13,10.8-20.4,13.9c-7.5,3.1-15.6,4.6-24.3,4.6
			s-16.8-1.5-24.3-4.6s-14.3-7.7-20.5-13.9c-12.4-12.3-18.6-27.2-18.6-44.7c0-17.3,6.2-32.1,18.6-44.5c6.2-6.2,13-10.8,20.5-13.9
			s15.6-4.6,24.3-4.6s16.8,1.5,24.3,4.6s14.3,7.7,20.4,13.9C261.5,153.4,267.7,168.2,267.7,185.6L267.7,185.6z M252.8,185.8
			c0-6.6-1.2-12.8-3.6-18.4c-2.4-5.6-6-10.8-10.8-15.5s-10.1-8.2-15.8-10.6c-5.8-2.4-12-3.5-18.8-3.5c-13.5,0-25.1,4.7-34.6,14.1
			c-9.5,9.4-14.3,20.7-14.3,34c0,13.4,4.8,24.8,14.3,34.2c4.8,4.7,10.1,8.2,15.8,10.6c5.8,2.3,12,3.5,18.8,3.5
			c13.5,0,25.1-4.7,34.6-14.1c4.8-4.7,8.4-9.9,10.7-15.6C251.6,198.7,252.8,192.5,252.8,185.8L252.8,185.8z"/>
		<path class="st1" d="M667.8,138.4L667.8,138.4h-3.2c-2.2,0.2-3.9,0.7-5.1,1.4c-0.9,0.6-1.5,1.4-1.8,2.4v104.1
			c0,1.4-1.2,2.6-2.6,2.6H655h-9.6c-1.4,0-2.6-1.2-2.6-2.6v-0.1V125.8c0-1.4,1.2-2.6,2.6-2.6h0.1h9.6c0.8,0,1.6,0.4,2.1,1
			c0.4-0.1,0.7-0.2,1.1-0.3c1.8-0.5,3.9-0.7,6.3-0.7c0.4,0,1,0,1.7,0.1l0,0c0.6,0.1,1.2,0.2,2,0.3c1.3,0.2,2.2,1.3,2.2,2.6l0,0v9.5
			C670.4,137.2,669.2,138.4,667.8,138.4L667.8,138.4z"/>
		<path class="st1" d="M437.7,248.7c-9.2,0-17.1-3.2-23.7-9.5c-3.3-3.2-5.8-6.7-7.4-10.6c-1.7-3.9-2.5-8.1-2.5-12.6v-90.1
			c0-1.4,1.2-2.6,2.6-2.6h0.1h9.8c1.4,0,2.6,1.2,2.6,2.6v0.1v88.3c0,2.6,0.5,5,1.4,7.2s2.3,4.2,4.2,6.1c1.9,1.9,3.9,3.2,6.2,4.2
			c2.2,0.9,4.6,1.4,7.2,1.4c2.7,0,5.1-0.5,7.2-1.4s4-2.3,5.7-4.1c1.7-1.9,3-3.9,3.8-6.1c0.8-2.2,1.3-4.7,1.3-7.4v-88.1
			c0-1.4,1.2-2.6,2.6-2.6h0.1h9.8c1.4,0,2.6,1.2,2.6,2.6v0.1v90.2c0.2,2.4,0.8,4.5,1.7,6.5l0.1,0.1c0.9,1.9,2.2,3.7,3.8,5.3l0,0
			c1.7,1.6,3.5,2.9,5.5,3.7s4.3,1.2,6.8,1.2c2.7,0,5.1-0.5,7.4-1.4c2.2-0.9,4.3-2.3,6.1-4.2l0.1-0.1c1.8-1.8,3.1-3.8,4-5.9
			c0.9-2.1,1.4-4.5,1.4-7V126c0-1.4,1.2-2.6,2.6-2.6h0.1h9.8c1.4,0,2.6,1.2,2.6,2.6v0.2l0.2,89.9l0,0c0,4.5-0.8,8.8-2.5,12.6
			c-1.7,3.9-4.1,7.4-7.4,10.6c-3.3,3.2-6.9,5.6-11,7.1c-4,1.6-8.3,2.4-13,2.4c-6,0-11.4-1.2-16.1-3.7c-3.7-1.9-7.1-4.6-9.9-8.1
			c-2.9,3.4-6.2,6.1-9.9,8.1C449,247.5,443.6,248.7,437.7,248.7L437.7,248.7z"/>
		<path class="st1" d="M394.4,234.6c0,2.5-0.1,4.5-0.4,6s-0.7,2.6-1.2,3.2c-0.5,0.7-1.3,1.4-2.3,2s-2.2,1.1-3.6,1.5
			c-1.3,0.4-2.7,0.7-4.3,1c-1.5,0.3-3,0.4-4.5,0.4c-4.6,0-8.5-0.8-11.8-2.4c-3.3-1.6-4.9-4-7-7.3s-3.6-7.4-4.6-12.4
			c-0.9-5-1.4-10.9-1.4-17.7v-65.5h-13.4c-1,0-1.7-0.7-2.3-2.1c-0.6-1.4-0.9-1.6-0.9-4.7c0-1.6,0.1-1,0.2-2.1
			c0.2-1.1,0.4-2.1,0.6-2.8c0.3-0.7,0.6-1.2,1-1.6c0.4-0.3,0.9-0.4,1.4-0.4h13.3V94.6c0-0.6,0.1-1.2,0.3-1.7c0.2-0.5,0.6-1,1.3-1.4
			c0.6-0.4,1.4-0.7,2.5-0.8c1-0.2,2.3-0.3,3.9-0.3s2,0.1,3,0.3c1,0.2,1.9,0.4,2.4,0.8c0.6,0.4,1,0.8,1.3,1.4
			c0.3,0.5,0.4,1.1,0.4,1.7v35.1H391c0.5,0,1,0.1,1.4,0.4s0.7,0.9,1,1.6c0.3,0.8,0.5,1.7,0.6,2.8c0.1,1.2,0.2,0.5,0.2,2.1
			c0,3.1-0.3,3.3-0.9,4.7s-1.4,2.1-2.3,2.1h-22.7v62.4c0,8.1,0.9,14.2,2.7,18.3c1.8,4.1,5,6.2,9.7,6.2c1.5,0,2.8-0.2,4-0.6
			c1.2-0.4,2.2-0.8,3.2-1.2c0.9-0.4,1.7-0.8,2.3-1.2c0.7-0.4,1.2-0.6,1.8-0.6c0.3,0,0.6,0.1,0.9,0.3s0.5,0.6,0.7,1.2
			c0.2,0.6,0.3,1.4,0.4,2.4C394.3,231.8,394.4,233.1,394.4,234.6L394.4,234.6z"/>
		<path class="st1" d="M329.6,104.5c0-2.5-0.1-3.5-0.4-5s-0.7-2.6-1.2-3.2c-0.5-0.7-1.3-1.5-2.3-2c-9.3-4-23.4-2.8-30.6,6.2
			c-3.3,4.2-6.5,10.9-6.5,19.4v10.3H271c-0.9,0-1.7,0.7-2.3,2.1c-0.6,1.4-0.9,1.6-0.9,4.7c0,1.6,0.1,1,0.2,2.1
			c0.2,1.1,0.4,2.1,0.6,2.8s0.6,1.2,1,1.6c0.4,0.3,0.9,0.4,1.4,0.4h17.4v100.7c0,0.6,0.1,1.2,0.3,1.7c0.2,0.5,0.6,1,1.3,1.4
			c0.6,0.4,1.4,0.7,2.5,0.8c1,0.2,2.3,0.3,3.9,0.3s2-0.1,3-0.3s1.9-0.4,2.4-0.8c0.6-0.4,1-0.9,1.3-1.4s0.4-1.1,0.4-1.7V144h22.7
			c0.5,0,1-0.1,1.4-0.4c0.4-0.3,0.7-0.9,1-1.6c0.3-0.7,0.5-1.7,0.6-2.8c0.1-1.1,0.2-0.5,0.2-2.1c0-3.1-0.3-3.4-0.9-4.7
			c-0.6-1.4-1.4-2.1-2.3-2.1h-22.7v-7.2c0-14.2,8-16.3,16.4-13.7c1.2,0.4,2.2,0.8,3.2,1.2c0.9,0.4,1.7,0.8,2.3,1.2
			c0.7,0.4,1.2,0.6,1.8,0.6c0.3,0,0.6-0.1,0.9-0.3c0.3-0.2,0.5-0.6,0.7-1.2s0.3-1.4,0.4-2.4C329.5,107.4,329.6,106.1,329.6,104.5
			L329.6,104.5z"/>
		<path class="st1" d="M109.6,81.5v10.4c-8.4-2-16.8,1.5-20.6,9.4c-0.4,0.8-0.7,1.5-0.9,2.3c-0.6,1.9-0.8,3.9-0.8,6.1
			c0.1,5.1,4,12.7,11.7,22.7c11.8,15.3,18.8,24.8,21.2,28.6c7.5,12.3,11.2,24.1,11.2,35.3c0,14.4-4.5,26.2-13.4,35.5
			c-8.4,8.7-19.7,14-33.9,16.1c-5.2,1.2-11,0.9-16.4,0.9v-11.2c0.9,0,1.7,0,2.5,0c1,0,2.1-0.1,3.1-0.2c9.8-0.7,18-3.2,24.5-7.6
			c0.7-0.5,1.4-0.9,2-1.4c10.6-7.9,15.9-18.6,15.9-32c0-9.8-3.7-20.3-11.2-31.3c-7-9.1-14.1-18.2-21.2-27.3
			c-7.5-10.7-11.3-20.2-11.5-28.7V109v-1c0.1-6.8,2.6-12.9,7.5-18.2c2.5-2.7,5.2-4.7,8.1-6.1C94.2,80.5,102.3,81.5,109.6,81.5
			L109.6,81.5z"/>
		<path class="st2" d="M1009.2,92.2c6.8,0,12.4,5.8,12.4,13.1c0,7.2-5.6,13.1-12.4,13.1s-12.4-5.8-12.4-13.1
			C996.8,98,1002.3,92.2,1009.2,92.2L1009.2,92.2z"/>
	</g>
</g>
<path class="st3" d="M896.8,249.2h-11.5c-0.3,0-0.6-0.1-0.9-0.2c-1.1-0.3-2-1-2.8-2.1l-0.1-0.1c-0.6-0.9-1.2-2-1.7-3.3l0,0
	c-0.5-1.3-0.9-2.6-1.1-3.8v-0.2c-0.1-0.7-0.2-1.4-0.3-2.1c-3.6,3.2-7.5,5.8-11.8,7.7c-6.1,2.7-12.9,4.1-20.3,4.1
	c-6.6,0-12.7-1.1-18.3-3.4c-5.6-2.2-10.8-5.6-15.4-10c-4.6-4.5-8.2-9.4-10.5-14.8c-2.4-5.4-3.5-11.3-3.5-17.6s1.2-12.2,3.5-17.6
	c2.3-5.4,5.8-10.4,10.5-14.8c4.6-4.5,9.8-7.8,15.4-10s11.7-3.4,18.3-3.4c7.3,0,13.9,1.4,20,4.2c4.2,1.9,8.1,4.5,11.7,7.8l0.2-15.9
	l0,0c0-3.9-1.4-7.2-4.1-10.1c-1.4-1.4-2.9-2.5-4.5-3.2s-3.5-1.1-5.5-1.1c-4,0-7.7,1.7-11.2,5.2c-0.9,0.9-2.3,1-3.3,0.3
	c-1.3-0.8-2.7-1.7-4.1-2.7c-1.5-1-3.1-2.1-4.7-3.3c-1.2-0.8-1.4-2.5-0.6-3.6c0.1-0.1,0.2-0.2,0.2-0.3c3.1-3.7,6.6-6.5,10.4-8.4l0,0
	l0,0c3.9-1.9,8.1-2.9,12.6-2.9c4.1,0,8,0.7,11.5,2.1s6.7,3.5,9.6,6.3c2.8,2.8,5,5.9,6.5,9.4l0,0c1.5,3.5,2.3,7.3,2.5,11.4v0.1l0,0
	v1.1v80.1c0.3,2.9,0.9,5.3,1.8,7.1c0.7,1.6,1.7,2.7,2.8,3.3c1.3,0.7,1.7,2.3,1,3.5C898.6,248.7,897.7,249.2,896.8,249.2L896.8,249.2
	L896.8,249.2z M877.4,203.2c0-8.4-3.1-15.5-9.2-21.4c-3.1-3-6.5-5.2-10.3-6.6c-3.7-1.5-7.9-2.2-12.3-2.2c-4.4,0-8.6,0.7-12.3,2.2
	c-3.7,1.5-7.2,3.7-10.3,6.6c-3.1,2.9-5.4,6.2-6.9,9.7s-2.3,7.4-2.3,11.6c0,8.4,3.1,15.5,9.2,21.5c3.1,3,6.5,5.2,10.3,6.7
	c3.7,1.5,7.8,2.2,12.3,2.2s8.6-0.7,12.3-2.2c3.7-1.5,7.2-3.7,10.3-6.7s5.4-6.3,6.9-9.8C876.7,211.3,877.4,207.4,877.4,203.2
	L877.4,203.2z"/>
<path class="st3" d="M939.6,138.7L939.6,138.7h-3.2c-2.2,0.2-3.9,0.7-5.1,1.4c-0.9,0.6-1.5,1.4-1.8,2.4v104.1c0,1.4-1.2,2.6-2.6,2.6
	h-0.1h-9.6c-1.4,0-2.6-1.2-2.6-2.6v-0.1V126.1c0-1.4,1.2-2.6,2.6-2.6h0.1h9.6c0.8,0,1.6,0.4,2.1,1c0.4-0.1,0.7-0.2,1.1-0.3
	c1.8-0.5,3.9-0.7,6.3-0.7c0.4,0,1,0,1.7,0.1l0,0c0.6,0.1,1.2,0.2,2,0.3c1.3,0.2,2.2,1.3,2.2,2.6l0,0v9.5
	C942.2,137.5,941,138.7,939.6,138.7L939.6,138.7z"/>
<path class="st3" d="M1009.2,235.1c0,2.5-0.1,4.5-0.4,6s-0.7,2.6-1.2,3.2c-0.5,0.7-1.3,1.4-2.3,2s-2.2,1.1-3.6,1.5
	c-1.3,0.4-2.7,0.7-4.3,1c-1.5,0.3-3,0.4-4.5,0.4c-4.6,0-8.5-0.8-11.8-2.4c-3.3-1.6-4.9-4-7-7.3c-2.1-3.3-3.6-7.4-4.6-12.4
	c-0.9-5-1.4-10.9-1.4-17.7v-65.5h-13.4c-1,0-1.7-0.7-2.3-2.1c-0.6-1.4-0.9-1.6-0.9-4.7c0-1.6,0.1-1,0.2-2.1c0.2-1.1,0.4-2.1,0.6-2.8
	c0.3-0.7,0.6-1.2,1-1.6c0.4-0.3,0.9-0.4,1.4-0.4H968V95.1c0-0.6,0.1-1.2,0.3-1.7c0.2-0.5,0.6-1,1.3-1.4c0.6-0.4,1.4-0.7,2.5-0.8
	c1-0.2,2.3-0.3,3.9-0.3c1.6,0,2,0.1,3,0.3c1,0.2,1.9,0.4,2.4,0.8c0.6,0.4,1,0.8,1.3,1.4c0.3,0.5,0.4,1.1,0.4,1.7v35.1h22.7
	c0.5,0,1,0.1,1.4,0.4c0.4,0.3,0.7,0.9,1,1.6c0.3,0.8,0.5,1.7,0.6,2.8c0.1,1.2,0.2,0.5,0.2,2.1c0,3.1-0.3,3.3-0.9,4.7
	c-0.6,1.4-1.4,2.1-2.3,2.1h-22.7v62.4c0,8.1,0.9,14.2,2.7,18.3s5,6.2,9.7,6.2c1.5,0,2.8-0.2,4-0.6c1.2-0.4,2.2-0.8,3.2-1.2
	c0.9-0.4,1.7-0.8,2.3-1.2c0.7-0.4,1.2-0.6,1.8-0.6c0.3,0,0.6,0.1,0.9,0.3s0.5,0.6,0.7,1.2c0.2,0.6,0.3,1.4,0.4,2.4
	C1009.1,232.3,1009.2,233.6,1009.2,235.1L1009.2,235.1z"/>
</svg>
